<?xml version="1.0" standalone="no"?><svg xmlns="http://www.w3.org/2000/svg" viewBox="0 0 1440 320"><path fill="#081c30" fill-opacity="1" d="M0,224L6.2,224C12.3,224,25,224,37,186.7C49.2,149,62,75,74,58.7C86.2,43,98,85,111,90.7C123.1,96,135,64,148,80C160,96,172,160,185,192C196.9,224,209,224,222,197.3C233.8,171,246,117,258,112C270.8,107,283,149,295,186.7C307.7,224,320,256,332,261.3C344.6,267,357,245,369,224C381.5,203,394,181,406,154.7C418.5,128,431,96,443,96C455.4,96,468,128,480,138.7C492.3,149,505,139,517,138.7C529.2,139,542,149,554,149.3C566.2,149,578,139,591,144C603.1,149,615,171,628,154.7C640,139,652,85,665,96C676.9,107,689,181,702,197.3C713.8,213,726,171,738,165.3C750.8,160,763,192,775,202.7C787.7,213,800,203,812,186.7C824.6,171,837,149,849,154.7C861.5,160,874,192,886,202.7C898.5,213,911,203,923,170.7C935.4,139,948,85,960,96C972.3,107,985,181,997,186.7C1009.2,192,1022,128,1034,128C1046.2,128,1058,192,1071,224C1083.1,256,1095,256,1108,213.3C1120,171,1132,85,1145,64C1156.9,43,1169,85,1182,117.3C1193.8,149,1206,171,1218,160C1230.8,149,1243,107,1255,74.7C1267.7,43,1280,21,1292,64C1304.6,107,1317,213,1329,218.7C1341.5,224,1354,128,1366,80C1378.5,32,1391,32,1403,48C1415.4,64,1428,96,1434,112L1440,128L1440,320L1433.8,320C1427.7,320,1415,320,1403,320C1390.8,320,1378,320,1366,320C1353.8,320,1342,320,1329,320C1316.9,320,1305,320,1292,320C1280,320,1268,320,1255,320C1243.1,320,1231,320,1218,320C1206.2,320,1194,320,1182,320C1169.2,320,1157,320,1145,320C1132.3,320,1120,320,1108,320C1095.4,320,1083,320,1071,320C1058.5,320,1046,320,1034,320C1021.5,320,1009,320,997,320C984.6,320,972,320,960,320C947.7,320,935,320,923,320C910.8,320,898,320,886,320C873.8,320,862,320,849,320C836.9,320,825,320,812,320C800,320,788,320,775,320C763.1,320,751,320,738,320C726.2,320,714,320,702,320C689.2,320,677,320,665,320C652.3,320,640,320,628,320C615.4,320,603,320,591,320C578.5,320,566,320,554,320C541.5,320,529,320,517,320C504.6,320,492,320,480,320C467.7,320,455,320,443,320C430.8,320,418,320,406,320C393.8,320,382,320,369,320C356.9,320,345,320,332,320C320,320,308,320,295,320C283.1,320,271,320,258,320C246.2,320,234,320,222,320C209.2,320,197,320,185,320C172.3,320,160,320,148,320C135.4,320,123,320,111,320C98.5,320,86,320,74,320C61.5,320,49,320,37,320C24.6,320,12,320,6,320L0,320Z"></path></svg>